<?xml version="1.0" encoding="UTF-8"?>
<!DOCTYPE svg PUBLIC "-//W3C//DTD SVG 1.1//EN" "http://www.w3.org/Graphics/SVG/1.1/DTD/svg11.dtd">
<!-- Creator: CorelDRAW 2019 (64-Bit) -->
<svg xmlns="http://www.w3.org/2000/svg" xml:space="preserve" width="90.1693mm" height="90.1695mm" version="1.1" style="shape-rendering:geometricPrecision; text-rendering:geometricPrecision; image-rendering:optimizeQuality; fill-rule:evenodd; clip-rule:evenodd"
viewBox="0 0 9256.63 9256.65"
 xmlns:xlink="http://www.w3.org/1999/xlink">
 <defs>
  <style type="text/css">
   <![CDATA[
    .fil0 {fill:white}
   ]]>
  </style>
 </defs>
 <g id="Layer_x0020_1">
  <metadata id="CorelCorpID_0Corel-Layer"/>
  <path class="fil0" d="M4613.8 9256.65l616.58 -616.57 1936.99 -1936.99 152.29 -152.29 -812.51 -812.49 1095.47 -1095.48 -616.58 -616.58 -660.2 -660.2 -435.26 435.27 -181.3 181.3 660.2 660.2 -1095.47 1095.48 152.29 152.29 464.28 464.27 195.92 195.92 -311.17 311.17 -1488.1 -1488.09 -616.57 616.57 1488.09 1488.1 -544.96 544.96 -1697.63 -1697.64 660.2 -660.21 -616.57 -616.57 -660.21 660.21 -1066.46 -1066.46 2568.17 -2568.17 1501.72 1501.72 616.58 -616.57 -1501.72 -1501.73 -616.58 -616.57 -3184.75 3184.73 -616.57 616.58 3997.23 3997.25 616.58 616.57zm3032.34 -3075.87l505.09 -505.09 -505.09 -505.08 -505.07 505.08 505.07 505.09zm-4686.34 -1944.17l406.25 -406.26 435.26 435.27 464.28 -464.29 -435.26 -435.26 406.25 -406.24 -435.27 -435.27 -435.26 435.27 406.25 406.24 -406.25 406.25 -406.25 -406.25 -435.27 435.27 435.27 435.27zm5832.55 841.5l464.27 -464.28 -4613.8 -4613.82 -464.29 464.29 4613.82 4613.81z"/>
 </g>
</svg>
