<svg width="26" height="26" viewBox="0 0 26 26" fill="none" xmlns="http://www.w3.org/2000/svg">
<path d="M12.7427 0.303284L2.36267 11.4757V24.8827C2.36267 25.179 2.48418 25.4632 2.70047 25.6727C2.91677 25.8822 3.21012 25.9999 3.51601 25.9999H21.9694C22.2753 25.9999 22.5687 25.8822 22.7849 25.6727C23.0012 25.4632 23.1227 25.179 23.1227 24.8827V11.4757L12.7427 0.303284Z" fill="#4F4F4F"/>
<path d="M12.7425 15.9448C14.6534 15.9448 16.2025 14.4442 16.2025 12.593C16.2025 10.7419 14.6534 9.2413 12.7425 9.2413C10.8316 9.2413 9.28247 10.7419 9.28247 12.593C9.28247 14.4442 10.8316 15.9448 12.7425 15.9448Z" fill="white"/>
</svg>
