<svg width="27" height="28" viewBox="0 0 27 28" fill="none" xmlns="http://www.w3.org/2000/svg">
<path d="M13.6068 22.5491H25.2357C25.5784 22.5491 25.907 22.428 26.1494 22.2125C26.3917 21.9969 26.5278 21.7046 26.5278 21.3998V18.952C26.5345 18.6847 26.4362 18.4237 26.2499 18.214C26.0636 18.0042 25.8009 17.8588 25.507 17.8027C22.5352 17.0442 21.9408 13.8838 21.3594 7.57451C21.0364 4.1268 18.7752 0.679092 13.6068 0.679092C8.43836 0.679092 6.17718 4.1268 5.85416 7.57451C5.27271 13.8838 4.67834 17.0442 1.70651 17.8027C1.41264 17.8588 1.14995 18.0042 0.963636 18.214C0.777326 18.4237 0.679059 18.6847 0.685745 18.952V21.3998C0.685745 21.7046 0.821876 21.9969 1.06419 22.2125C1.30651 22.428 1.63516 22.5491 1.97785 22.5491H13.6068Z" fill="#535353"/>
<path d="M13.6064 27.146C12.921 27.146 12.2637 26.9038 11.7791 26.4728C11.2945 26.0417 11.0222 25.4571 11.0222 24.8475V22.5491H16.1906V24.8475C16.1906 25.4571 15.9184 26.0417 15.4337 26.4728C14.9491 26.9038 14.2918 27.146 13.6064 27.146Z" fill="#535353"/>
</svg>
