<svg width="23" height="24" viewBox="0 0 23 24" fill="none" xmlns="http://www.w3.org/2000/svg">
<path fill-rule="evenodd" clip-rule="evenodd" d="M15.7065 8.59029C15.7065 9.68921 15.27 10.7431 14.4929 11.5202C13.7159 12.2972 12.662 12.7338 11.563 12.7338C10.4641 12.7338 9.41021 12.2972 8.63315 11.5202C7.8561 10.7431 7.41956 9.68921 7.41956 8.59029C7.41956 7.49137 7.8561 6.43746 8.63315 5.66041C9.41021 4.88335 10.4641 4.44681 11.563 4.44681C12.662 4.44681 13.7159 4.88335 14.4929 5.66041C15.27 6.43746 15.7065 7.49137 15.7065 8.59029ZM13.6348 8.59029C13.6348 9.13975 13.4165 9.6667 13.028 10.0552C12.6395 10.4438 12.1125 10.662 11.563 10.662C11.0136 10.662 10.4866 10.4438 10.0981 10.0552C9.70957 9.6667 9.4913 9.13975 9.4913 8.59029C9.4913 8.04083 9.70957 7.51387 10.0981 7.12535C10.4866 6.73682 11.0136 6.51855 11.563 6.51855C12.1125 6.51855 12.6395 6.73682 13.028 7.12535C13.4165 7.51387 13.6348 8.04083 13.6348 8.59029Z" fill="#535353"/>
<path fill-rule="evenodd" clip-rule="evenodd" d="M11.5632 0.303345C5.27024 0.303345 0.168579 5.40501 0.168579 11.6979C0.168579 17.9908 5.27024 23.0925 11.5632 23.0925C17.8561 23.0925 22.9577 17.9908 22.9577 11.6979C22.9577 5.40501 17.8561 0.303345 11.5632 0.303345ZM2.24032 11.6979C2.24032 13.8629 2.97889 15.8559 4.21676 17.4387C5.08609 16.2971 6.2076 15.3719 7.49367 14.7354C8.77973 14.0989 10.1955 13.7684 11.6305 13.7697C13.0469 13.7683 14.4449 14.0903 15.718 14.711C16.9911 15.3318 18.1057 16.2349 18.9769 17.3517C19.8744 16.1745 20.4787 14.8006 20.7398 13.3435C21.0009 11.8864 20.9113 10.3881 20.4784 8.97253C20.0454 7.55696 19.2816 6.26483 18.2502 5.20305C17.2187 4.14127 15.9493 3.34037 14.5469 2.86661C13.1444 2.39286 11.6493 2.25987 10.1853 2.47864C8.72126 2.69742 7.33037 3.26168 6.1277 4.12473C4.92503 4.98777 3.94517 6.1248 3.26918 7.44173C2.59319 8.75866 2.24051 10.2176 2.24032 11.6979ZM11.5632 21.0207C9.42299 21.024 7.34744 20.2877 5.6877 18.9366C6.35576 17.9802 7.24496 17.1993 8.27964 16.6604C9.31433 16.1216 10.4639 15.8406 11.6305 15.8414C12.7825 15.8405 13.9182 16.1144 14.9431 16.6405C15.9681 17.1666 16.8527 17.9296 17.5235 18.8661C15.8509 20.2611 13.7412 21.0238 11.5632 21.0207Z" fill="#513131"/>
</svg>
