<svg width="27" height="27" viewBox="0 0 27 27" fill="none" xmlns="http://www.w3.org/2000/svg">
<path d="M13.5 1C6.59625 1 1 6.59625 1 13.5C1 20.4037 6.59625 26 13.5 26C20.4037 26 26 20.4037 26 13.5C26 6.59625 20.4037 1 13.5 1Z" stroke="#23705D" stroke-width="1.5" stroke-linecap="round" stroke-linejoin="round"/>
<path d="M3.83875 21.4325C3.83875 21.4325 6.625 17.875 13.5 17.875C20.375 17.875 23.1625 21.4325 23.1625 21.4325M13.5 13.5C14.4946 13.5 15.4484 13.1049 16.1516 12.4017C16.8549 11.6984 17.25 10.7446 17.25 9.75C17.25 8.75544 16.8549 7.80161 16.1516 7.09835C15.4484 6.39509 14.4946 6 13.5 6C12.5054 6 11.5516 6.39509 10.8483 7.09835C10.1451 7.80161 9.75 8.75544 9.75 9.75C9.75 10.7446 10.1451 11.6984 10.8483 12.4017C11.5516 13.1049 12.5054 13.5 13.5 13.5V13.5Z" stroke="#23705D" stroke-width="1.5" stroke-linecap="round" stroke-linejoin="round"/>
</svg>
