<svg width="49" height="49" viewBox="0 0 49 49" fill="none" xmlns="http://www.w3.org/2000/svg">
<circle cx="24.5" cy="24.5" r="22" fill="white" stroke="#0A5355" stroke-width="5"/>
<path d="M34.1159 14.4647C34.5789 14.0215 35.1952 13.7765 35.8345 13.7813C36.4738 13.7862 37.0863 14.0406 37.5426 14.4908C37.999 14.941 38.2635 15.5519 38.2804 16.1944C38.2973 16.837 38.0652 17.4611 37.6332 17.9349L24.5172 34.4265C24.2917 34.6708 24.0195 34.8668 23.7169 35.0028C23.4143 35.1389 23.0875 35.2122 22.7561 35.2183C22.4247 35.2245 22.0954 35.1634 21.788 35.0387C21.4806 34.914 21.2014 34.7283 20.967 34.4926L12.2691 25.7478C12.0268 25.5209 11.8326 25.2472 11.6978 24.9431C11.5631 24.6391 11.4906 24.3109 11.4848 23.9781C11.4789 23.6452 11.5398 23.3146 11.6638 23.006C11.7878 22.6974 11.9724 22.417 12.2065 22.1816C12.4406 21.9462 12.7195 21.7607 13.0264 21.636C13.3334 21.5114 13.6622 21.4501 13.9933 21.456C14.3243 21.4619 14.6508 21.5347 14.9532 21.6702C15.2556 21.8057 15.5278 22.001 15.7535 22.2445L22.6369 29.1618L34.0534 14.5374C34.074 14.512 34.0959 14.4877 34.1192 14.4647H34.1159Z" fill="#0A5355"/>
</svg>
