<svg width="18" height="18" viewBox="0 0 18 18" fill="none" xmlns="http://www.w3.org/2000/svg">
<path d="M9 0C13.9707 0 18 4.0293 18 9C18 13.9707 13.9707 18 9 18C4.0293 18 0 13.9707 0 9C0 4.0293 4.0293 0 9 0ZM9 4.5C8.83689 4.50001 8.67929 4.55908 8.55636 4.66629C8.43343 4.7735 8.35348 4.9216 8.3313 5.0832L8.325 5.175V8.325H5.175C5.00398 8.32505 4.83935 8.39002 4.71439 8.50678C4.58942 8.62353 4.51343 8.78337 4.50178 8.95399C4.49012 9.12462 4.54366 9.2933 4.65159 9.42597C4.75951 9.55863 4.91377 9.64539 5.0832 9.6687L5.175 9.675H8.325V12.825C8.32505 12.996 8.39002 13.1606 8.50678 13.2856C8.62353 13.4106 8.78337 13.4866 8.95399 13.4982C9.12462 13.5099 9.2933 13.4563 9.42597 13.3484C9.55863 13.2405 9.64539 13.0862 9.6687 12.9168L9.675 12.825V9.675H12.825C12.996 9.67495 13.1606 9.60998 13.2856 9.49322C13.4106 9.37647 13.4866 9.21663 13.4982 9.04601C13.5099 8.87538 13.4563 8.7067 13.3484 8.57403C13.2405 8.44136 13.0862 8.35461 12.9168 8.3313L12.825 8.325H9.675V5.175C9.675 4.99598 9.60388 4.82429 9.4773 4.6977C9.35071 4.57112 9.17902 4.5 9 4.5Z" fill="black"/>
</svg>
