<?xml version="1.0" encoding="UTF-8"?>
<!DOCTYPE svg PUBLIC "-//W3C//DTD SVG 1.1//EN" "http://www.w3.org/Graphics/SVG/1.1/DTD/svg11.dtd">
<!-- Creator: CorelDRAW 2019 (64-Bit) -->
<svg xmlns="http://www.w3.org/2000/svg" xml:space="preserve" width="101.587mm" height="135.45mm" version="1.1" style="shape-rendering:geometricPrecision; text-rendering:geometricPrecision; image-rendering:optimizeQuality; fill-rule:evenodd; clip-rule:evenodd"
viewBox="0 0 1634.66 2179.55"
 xmlns:xlink="http://www.w3.org/1999/xlink">
 <defs>
  <style type="text/css">
   <![CDATA[
    .fil0 {fill:#236D5A}
   ]]>
  </style>
 </defs>
 <g id="Layer_x0020_1">
  <metadata id="CorelCorpID_0Corel-Layer"/>
  <path class="fil0" d="M-0 195.82l0 1826.22c0,89.39 75.44,157.51 148.99,157.51l22.63 0c21.04,-0.29 35.52,-2.39 60.4,-14.87 22.6,-11.34 24.51,-16.24 42.23,-30.13 33.09,-25.94 378.04,-375.29 444.1,-441.34 32.19,-32.19 44.65,-58.53 98.97,-58.53 51.21,0 66.12,25.68 92.59,52.15 131.31,131.31 277.93,282.64 408.62,408.71 3.85,3.71 5.1,4.78 8.91,8.11l30.85 28.74c47.04,41.61 65.75,47.18 127.36,47.18 75.45,0 148.99,-69.54 148.99,-157.51l0 -1826.22c0,-102.97 -90.96,-195.82 -191.56,-195.82l-1255.79 0c-52.17,0 -104.06,33.13 -131.03,60.54 -27.92,28.38 -56.28,80.15 -56.28,135.28zm99.1 92.04l-19.31 1585.84c0,71.96 66.29,126.78 130.93,126.78l19.89 0c18.49,-0.23 31.22,-1.92 53.08,-11.97 19.86,-9.13 21.53,-13.07 37.11,-24.26 29.08,-20.88 351.52,-398.64 409.56,-451.8 28.29,-25.91 39.24,-47.12 86.97,-47.12 45,0 58.1,20.67 81.36,41.98 115.39,105.7 258.71,324.06 373.56,425.53 3.38,2.99 4.48,3.85 7.83,6.53l27.11 23.14c41.34,33.49 57.78,37.97 111.92,37.97 66.3,0 130.93,-55.97 130.93,-126.78l-14.48 -1585.84c0,-82.88 -79.93,-157.62 -168.33,-157.62l-1103.53 0c-45.85,0 -91.45,26.67 -115.14,48.73 -24.53,22.84 -49.45,64.51 -49.45,108.89z"/>
 </g>
</svg>
