<svg width="13" height="13" viewBox="0 0 13 13" fill="none" xmlns="http://www.w3.org/2000/svg">
<path d="M12.879 0.120181C12.9363 0.177577 12.9755 0.250545 12.9917 0.33002C13.0079 0.409496 13.0003 0.491976 12.9701 0.567216L8.15344 12.6098C8.111 12.7159 8.04012 12.8082 7.9486 12.8766C7.85709 12.9449 7.7485 12.9867 7.63477 12.9973C7.52104 13.0079 7.40659 12.987 7.30401 12.9367C7.20144 12.8865 7.11471 12.8089 7.05338 12.7125L4.42282 8.57743L0.288263 5.94654C0.191681 5.88527 0.113901 5.7985 0.0635073 5.69581C0.0131131 5.59312 -0.00793657 5.47851 0.00268097 5.36461C0.0132985 5.25071 0.0551705 5.14197 0.123677 5.05036C0.192183 4.95876 0.28466 4.88787 0.390903 4.84551L12.432 0.0299457C12.5073 -0.00034317 12.5897 -0.00785976 12.6692 0.00832969C12.7487 0.0245191 12.8216 0.0637011 12.879 0.121008V0.120181ZM5.24891 8.33569L7.53429 11.9269L11.452 2.13184L5.24891 8.33569ZM10.8668 1.54655L1.07296 5.46474L4.66452 7.74958L10.8676 1.54655H10.8668Z" fill="white"/>
</svg>
