<svg width="13" height="12" viewBox="0 0 13 12" fill="none" xmlns="http://www.w3.org/2000/svg">
<path d="M6.5 1V7.66667V1ZM6.5 1L4.3 3.22222L6.5 1ZM6.5 1L8.7 3.22222L6.5 1ZM1 8.77778L1.34155 10.1583C1.40103 10.3987 1.53835 10.6121 1.73168 10.7646C1.92501 10.9171 2.16325 11 2.40855 11H10.5914C10.8367 11 11.075 10.9171 11.2683 10.7646C11.4616 10.6121 11.599 10.3987 11.6585 10.1583L12 8.77778" fill="#23705D"/>
<path d="M6.5 1V7.66667M6.5 1L4.3 3.22222M6.5 1L8.7 3.22222M1 8.77778L1.34155 10.1583C1.40103 10.3987 1.53835 10.6121 1.73168 10.7646C1.92501 10.9171 2.16325 11 2.40855 11H10.5914C10.8367 11 11.075 10.9171 11.2683 10.7646C11.4616 10.6121 11.599 10.3987 11.6585 10.1583L12 8.77778" stroke="#23705D" stroke-width="2" stroke-linecap="round" stroke-linejoin="round"/>
</svg>
