<?xml version="1.0" encoding="UTF-8"?>
<!DOCTYPE svg PUBLIC "-//W3C//DTD SVG 1.1//EN" "http://www.w3.org/Graphics/SVG/1.1/DTD/svg11.dtd">
<!-- Creator: CorelDRAW 2019 (64-Bit) -->
<svg xmlns="http://www.w3.org/2000/svg" xml:space="preserve" width="44.4421mm" height="44.4421mm" version="1.1" style="shape-rendering:geometricPrecision; text-rendering:geometricPrecision; image-rendering:optimizeQuality; fill-rule:evenodd; clip-rule:evenodd"
viewBox="0 0 1040.55 1040.55"
 xmlns:xlink="http://www.w3.org/1999/xlink">
 <defs>
  <style type="text/css">
   <![CDATA[
    .fil2 {fill:#226C59}
    .fil1 {fill:white}
    .fil0 {fill:url(#id0)}
   ]]>
  </style>
  <linearGradient id="id0" gradientUnits="userSpaceOnUse" x1="170.2" y1="3.98" x2="1087.6" y2="1173.77">
   <stop offset="0" style="stop-opacity:1; stop-color:#3D8361"/>
   <stop offset="1" style="stop-opacity:1; stop-color:#1D6858"/>
  </linearGradient>
 </defs>
 <g id="Layer_x0020_1">
  <metadata id="CorelCorpID_0Corel-Layer"/>
  <rect class="fil0" width="1040.55" height="1040.55" rx="65.04" ry="71.47"/>
  <circle class="fil1" cx="520.27" cy="520.27" r="460.35"/>
  <path class="fil2" d="M519.23 853.55l44.4 -44.4 139.48 -139.48 10.96 -10.96 -58.51 -58.51 78.88 -78.88 -44.4 -44.4 -47.54 -47.54 -31.34 31.34 -13.06 13.06 47.54 47.54 -78.88 78.88 10.97 10.97 33.43 33.43 14.11 14.11 -22.41 22.41 -107.15 -107.15 -44.4 44.4 107.15 107.15 -39.24 39.24 -122.24 -122.24 47.54 -47.54 -44.4 -44.4 -47.54 47.54 -76.79 -76.79 184.93 -184.93 108.14 108.14 44.4 -44.4 -108.14 -108.14 -44.4 -44.4 -229.33 229.32 -44.4 44.4 287.83 287.83 44.4 44.4zm218.35 -221.48l36.37 -36.37 -36.37 -36.37 -36.37 36.37 36.37 36.37zm-337.45 -140l29.25 -29.25 31.34 31.34 33.43 -33.43 -31.34 -31.34 29.25 -29.25 -31.34 -31.34 -31.34 31.34 29.25 29.25 -29.25 29.25 -29.25 -29.25 -31.34 31.34 31.34 31.34zm419.99 60.59l33.43 -33.43 -332.23 -332.23 -33.43 33.43 332.23 332.23z"/>
 </g>
</svg>
