<svg width="17" height="13" viewBox="0 0 17 13" fill="none" xmlns="http://www.w3.org/2000/svg">
<path d="M16.3929 0H0.607143C0.271317 0 0 0.264062 0 0.590909V12.4091C0 12.7359 0.271317 13 0.607143 13H16.3929C16.7287 13 17 12.7359 17 12.4091V0.590909C17 0.264062 16.7287 0 16.3929 0ZM15.6339 11.6705H1.36607V10.9337L3.99386 7.89972L6.84174 11.1866L11.272 6.07528L15.6339 11.1091V11.6705ZM15.6339 9.27358L11.3877 4.37273C11.327 4.30256 11.217 4.30256 11.1562 4.37273L6.84174 9.35114L4.1096 6.19901C4.04888 6.12884 3.93884 6.12884 3.87812 6.19901L1.36607 9.09815V1.32955H15.6339V9.27358ZM4.55357 5.46591C4.77283 5.46591 4.98995 5.42388 5.19252 5.34221C5.39509 5.26055 5.57915 5.14085 5.73419 4.98996C5.88923 4.83906 6.01221 4.65992 6.09612 4.46277C6.18003 4.26562 6.22321 4.05431 6.22321 3.84091C6.22321 3.62751 6.18003 3.4162 6.09612 3.21905C6.01221 3.02189 5.88923 2.84276 5.73419 2.69186C5.57915 2.54097 5.39509 2.42127 5.19252 2.3396C4.98995 2.25794 4.77283 2.21591 4.55357 2.21591C4.11075 2.21591 3.68607 2.38711 3.37296 2.69186C3.05984 2.99661 2.88393 3.40993 2.88393 3.84091C2.88393 4.27189 3.05984 4.68521 3.37296 4.98996C3.68607 5.2947 4.11075 5.46591 4.55357 5.46591ZM4.55357 3.32386C4.84766 3.32386 5.08482 3.55469 5.08482 3.84091C5.08482 4.12713 4.84766 4.35795 4.55357 4.35795C4.25949 4.35795 4.02232 4.12713 4.02232 3.84091C4.02232 3.55469 4.25949 3.32386 4.55357 3.32386Z" fill="black" fill-opacity="0.44"/>
</svg>
