<?xml version="1.0" encoding="UTF-8"?>
<!DOCTYPE svg PUBLIC "-//W3C//DTD SVG 1.1//EN" "http://www.w3.org/Graphics/SVG/1.1/DTD/svg11.dtd">
<!-- Creator: CorelDRAW X7 -->
<svg xmlns="http://www.w3.org/2000/svg" xml:space="preserve" width="90.1693mm" height="90.1694mm" version="1.1" style="shape-rendering:geometricPrecision; text-rendering:geometricPrecision; image-rendering:optimizeQuality; fill-rule:evenodd; clip-rule:evenodd"
viewBox="0 0 4448 4448"
 xmlns:xlink="http://www.w3.org/1999/xlink">
 <defs>
  <style type="text/css">
   <![CDATA[
    .fil0 {fill:#23705D}
   ]]>
  </style>
 </defs>
 <g id="Layer_x0020_1">
  <metadata id="CorelCorpID_0Corel-Layer"/>
  <path class="fil0" d="M2217 4448l296 -296 931 -931 73 -73 -390 -391 526 -526 -296 -296 -317 -318 -210 210 -87 87 318 317 -527 526 73 73 223 224 95 94 -150 149 -715 -715 -296 296 715 715 -262 262 -816 -815 317 -318 -296 -296 -317 317 -512 -512 1234 -1234 721 721 296 -296 -721 -721 -296 -297 -1531 1531 -296 296 1921 1921 296 296zm1457 -1478l243 -243 -243 -243 -243 243 243 243zm-2252 -934l195 -196 210 210 223 -223 -210 -210 196 -195 -209 -209 -210 209 196 195 -196 196 -195 -196 -209 210 209 209zm2803 404l223 -223 -2217 -2217 -223 223 2217 2217z"/>
 </g>
</svg>
